<svg xmlns="http://www.w3.org/2000/svg" viewBox="0 0 701.91 429.87"><defs><style>.cls-1{fill:#787c82;}.cls-2{fill:#3e8ddd;}</style></defs><title>NM</title><g id="Capa_3" data-name="Capa 3"><path class="cls-1" d="M291.89,186.09q-10.29,51.14-20.56,102.29L64.89,69.34l63.56-58.16Z" transform="translate(-11.2 -11.18)"/><path class="cls-1" d="M529.22,255.35l-85.53,33L310.58,56.08l78-44.9Z" transform="translate(-11.2 -11.18)"/><rect class="cls-1" x="598.63" width="100.95" height="277.2"/><path class="cls-1" d="M514.6,333.05a3.94,3.94,0,0,0-2.72-1.13H490.65a37.67,37.67,0,0,1-3,3.56,38.09,38.09,0,0,1-3.36,3.21l-.21.13v.05a24.4,24.4,0,0,1-3,2.07,27.28,27.28,0,0,1-8.07,3.23c-1.25.27-3.58.7-4.84.9-.75.12-1.13.18-1.7.24-1,.12-1.26.11-2,.24-1.52.25-1.89.52-2,.84a1.05,1.05,0,0,0-.09.45,4.61,4.61,0,0,0,0,.56v.3c0,.26,0,8-.09,25.24a3.2,3.2,0,0,0,1.16,1.7,3.45,3.45,0,0,0,2.15.54,12.7,12.7,0,0,0,4.66-1c6.46-2.92,5.58-2,9.5-4.12,1.2-.64,2.71-1.5,4.41-2.56v68.43a5.06,5.06,0,0,0,3.85,3.85h23.95a3.85,3.85,0,0,0,3.85-3.85V335.77A3.83,3.83,0,0,0,514.6,333.05Z" transform="translate(-11.2 -11.18)"/></g><g id="Capa_2" data-name="Capa 2"><rect class="cls-2" width="117.25" height="277.2"/><rect class="cls-2" x="260.13" width="117.25" height="277.2"/><polygon class="cls-2" points="432.49 277.19 593.99 0 699.59 0 538.09 277.19 432.49 277.19"/><rect class="cls-2" y="320.77" width="31.42" height="107.54" rx="4.18" ry="4.18"/><path class="cls-2" d="M156.92,332H131.5a4.18,4.18,0,0,0-4.18,4.18v52.06L87,333.8a3.77,3.77,0,0,0-1-.92,4.34,4.34,0,0,0-1.55-.67,6.68,6.68,0,0,0-1.89-.25H53.89a4.18,4.18,0,0,0-4.18,4.18v99.18a4.18,4.18,0,0,0,4.18,4.18H79.31a4.18,4.18,0,0,0,4.18-4.18V385.76l38.73,52.3a4.19,4.19,0,0,0,.9.89,4.07,4.07,0,0,0,1.06.56l.9.08a13.43,13.43,0,0,0,1.68,0l4.74-.1h25.42a4.18,4.18,0,0,0,4.18-4.18V336.13A4.18,4.18,0,0,0,156.92,332Z" transform="translate(-11.2 -11.18)"/><path class="cls-2" d="M403.7,330.27H377.92a52.22,52.22,0,0,0-52.07,52.07v6.46a52.22,52.22,0,0,0,52.07,52.07H403.7a52.22,52.22,0,0,0,52.07-52.07v-6.46A52.22,52.22,0,0,0,403.7,330.27Zm13.78,57.91a21.1,21.1,0,0,1-21,21H385.21a21.11,21.11,0,0,1-21-21v-4.87a21.11,21.11,0,0,1,21-21.05h11.23a21.11,21.11,0,0,1,21,21.05Z" transform="translate(-11.2 -11.18)"/><path class="cls-2" d="M317.59,332h-31l-4,0a3.21,3.21,0,0,0-2.69,1.52l-35.8,58L206.31,333.3a3.1,3.1,0,0,0-2.63-1.42l-7.1.07H170.13a2.38,2.38,0,0,0-2.38,2.37V437.24a2.39,2.39,0,0,0,2.38,2.38H201a2.38,2.38,0,0,0,2.37-2.38V380.43l30.43,56.18a16.24,16.24,0,0,0,.7,1.5h0a2.87,2.87,0,0,0,2.55,1.5h13.15a2.94,2.94,0,0,0,2.59-1.53l31.5-57.58v56.73a2.38,2.38,0,0,0,2.37,2.38h30.9a2.38,2.38,0,0,0,2.37-2.38V334.32A2.37,2.37,0,0,0,317.59,332Z" transform="translate(-11.2 -11.18)"/><path class="cls-1" d="M573.06,330.27H562.9A41,41,0,0,0,522,371.18V400a41,41,0,0,0,40.91,40.91h10.16A41,41,0,0,0,614,400V371.18A41,41,0,0,0,573.06,330.27ZM579,400.65a11,11,0,0,1-11,11h0a11,11,0,0,1-11-11v-32a11,11,0,0,1,11-11h0a11,11,0,0,1,11,11Z" transform="translate(-11.2 -11.18)"/><path class="cls-1" d="M672.2,330.45H662a41,41,0,0,0-40.91,40.91v28.78A41,41,0,0,0,662,441.06H672.2a41,41,0,0,0,40.91-40.92V371.36A41,41,0,0,0,672.2,330.45Zm5.92,70.38a11,11,0,0,1-11,11h0a11,11,0,0,1-11-11v-32a11,11,0,0,1,11-11h0a11,11,0,0,1,11,11Z" transform="translate(-11.2 -11.18)"/></g></svg>