<svg id="Capa_1" data-name="Capa 1" xmlns="http://www.w3.org/2000/svg" viewBox="0 0 701.91 429.88"><defs><style>.cls-1{fill:#fff;}</style></defs><title>NM BLANCO</title><g id="Capa_3" data-name="Capa 3"><path class="cls-1" d="M293.69,182.91Q283.4,234,273.13,285.2L66.69,66.16,130.25,8Z" transform="translate(-13 -8)"/><path class="cls-1" d="M531,252.17l-85.53,33L312.38,52.9l78-44.9Z" transform="translate(-13 -8)"/><rect class="cls-1" x="598.63" width="100.95" height="277.2"/><path class="cls-1" d="M516.4,329.87a4,4,0,0,0-2.72-1.13H492.45a43.09,43.09,0,0,1-6.36,6.77l-.21.13v.05a24.6,24.6,0,0,1-3,2.07,27.3,27.3,0,0,1-8.07,3.23c-1.25.27-3.58.7-4.84.9-.75.12-1.13.18-1.7.24-1,.12-1.26.11-2,.24-1.52.25-1.89.52-2,.84a1.17,1.17,0,0,0-.09.45,5.23,5.23,0,0,0,0,.56v.3c0,.26,0,8-.09,25.24a3.21,3.21,0,0,0,1.16,1.7,3.47,3.47,0,0,0,2.15.54,12.9,12.9,0,0,0,4.66-1c6.46-2.92,5.58-2,9.5-4.12,1.2-.64,2.71-1.5,4.41-2.56v68.43a5.06,5.06,0,0,0,3.85,3.85h23.95a3.85,3.85,0,0,0,3.85-3.85V332.59A3.81,3.81,0,0,0,516.4,329.87Z" transform="translate(-13 -8)"/></g><g id="Capa_2" data-name="Capa 2"><rect class="cls-1" width="117.25" height="277.2"/><rect class="cls-1" x="260.13" width="117.25" height="277.2"/><polygon class="cls-1" points="432.49 277.19 593.99 0 699.59 0 538.09 277.19 432.49 277.19"/><rect class="cls-1" y="320.77" width="31.42" height="107.54" rx="4.18" ry="4.18"/><path class="cls-1" d="M158.72,328.82H133.3a4.18,4.18,0,0,0-4.18,4.18v52.06L88.8,330.62a3.66,3.66,0,0,0-1-.92,4.38,4.38,0,0,0-1.55-.67,6.68,6.68,0,0,0-1.89-.25H55.69A4.18,4.18,0,0,0,51.51,333v99.18a4.18,4.18,0,0,0,4.18,4.18H81.11a4.18,4.18,0,0,0,4.18-4.18V382.58L124,434.88a4.22,4.22,0,0,0,.9.89,3.85,3.85,0,0,0,1.06.56l.9.08a11.78,11.78,0,0,0,1.68,0l4.74-.1h25.42a4.18,4.18,0,0,0,4.18-4.18V333A4.18,4.18,0,0,0,158.72,328.82Z" transform="translate(-13 -8)"/><path class="cls-1" d="M405.5,327.09H379.72a52.22,52.22,0,0,0-52.07,52.07v6.46a52.22,52.22,0,0,0,52.07,52.07H405.5a52.22,52.22,0,0,0,52.07-52.07v-6.46A52.22,52.22,0,0,0,405.5,327.09ZM419.28,385a21.09,21.09,0,0,1-21,21H387a21.11,21.11,0,0,1-21-21v-4.87a21.11,21.11,0,0,1,21-21.05h11.23a21.11,21.11,0,0,1,21,21.05Z" transform="translate(-13 -8)"/><path class="cls-1" d="M319.39,328.82h-35a3.21,3.21,0,0,0-2.69,1.52l-35.8,58-37.79-58.22a3.11,3.11,0,0,0-2.63-1.42l-7.1.07H171.93a2.38,2.38,0,0,0-2.38,2.37V434.06a2.4,2.4,0,0,0,2.38,2.38H202.8a2.38,2.38,0,0,0,2.37-2.38V377.25l30.43,56.18c.21.51.44,1,.7,1.5h0a2.88,2.88,0,0,0,2.55,1.5H252a2.94,2.94,0,0,0,2.59-1.53l31.5-57.58v56.73a2.38,2.38,0,0,0,2.37,2.38h30.9a2.38,2.38,0,0,0,2.37-2.38V331.14A2.37,2.37,0,0,0,319.39,328.82Z" transform="translate(-13 -8)"/><path class="cls-1" d="M574.86,327.09H564.7A41,41,0,0,0,523.8,368v28.82a41,41,0,0,0,40.91,40.91h10.16a41,41,0,0,0,40.93-40.91V368A41,41,0,0,0,574.86,327.09Zm5.94,70.38a11,11,0,0,1-11,11h0a11,11,0,0,1-11-11v-32a11,11,0,0,1,11-11h0a11,11,0,0,1,11,11h0Z" transform="translate(-13 -8)"/><path class="cls-1" d="M674,327.27H663.8a41,41,0,0,0-40.91,40.91V397a41,41,0,0,0,40.91,40.92H674A41,41,0,0,0,714.91,397V368.18A41,41,0,0,0,674,327.27Zm5.92,70.38a11,11,0,0,1-11,11h0a11,11,0,0,1-11-11v-32a11,11,0,0,1,11-11h0a11,11,0,0,1,11,11h0Z" transform="translate(-13 -8)"/></g></svg>